<?xml version="1.0" encoding="UTF-8"?>
<svg width="1200pt" height="1200pt" version="1.1" viewBox="0 0 1200 1200" xmlns="http://www.w3.org/2000/svg">
 <path d="m594 960c-3.7969 0-7.5938-0.046875-11.391-0.1875-264.71-6.4219-477.66-158.68-486.32-347.81-0.1875-3.9844-0.28125-7.9688-0.28125-12s0.09375-8.0156 0.28125-12c8.6719-189.14 221.63-341.39 486.32-347.76 3.7969-0.14063 7.5938-0.23438 11.391-0.23438h6c4.0312 0 8.0156 0.046876 12 0.09375 267.24 4.4531 483 157.5 491.72 347.9 0.1875 3.9844 0.28125 7.9688 0.28125 12s-0.09375 8.0156-0.28125 12c-8.7188 190.4-224.48 343.45-491.72 347.9-3.9844 0.046875-7.9688 0.09375-12 0.09375zm150.61-39.609c76.031-16.875 143.63-46.641 197.81-85.359 1.4062-0.98438 2.8125-2.0156 4.1719-3-24.234-11.062-50.953-20.953-79.734-29.531-30.984 49.594-73.031 90.281-122.26 117.89zm134.63-139.22c32.156 9.8438 61.828 21.375 88.547 34.312 67.641-56.484 108.05-127.45 111.89-203.48h-155.86c-1.8281 61.547-17.859 119.2-44.578 169.18zm20.578-169.18c-1.875 59.578-17.812 114.94-44.156 162.37-32.625-8.8594-67.5-16.031-104.11-21.375 9.7969-43.031 15.562-90.703 16.359-141zm24-24h155.86c-3.8438-76.031-44.25-147-111.89-203.44-26.719 12.891-56.391 24.422-88.547 34.266 26.719 49.969 42.75 107.62 44.578 169.18zm-68.156-162.37c26.344 47.438 42.281 102.8 44.156 162.37h-131.9c-0.79688-50.297-6.5625-97.969-16.359-141 36.609-5.2969 71.484-12.516 104.11-21.375zm11.203-28.125c28.781-8.5781 55.5-18.469 79.734-29.531-1.3594-0.98438-2.7656-2.0156-4.1719-3-54.188-38.719-121.78-68.484-197.81-85.359 49.219 27.609 91.266 68.297 122.26 117.89zm-431.9-113.02c-67.688 17.484-128.11 45.281-177.37 80.484-1.4062 0.98438-2.8125 2.0156-4.1719 3 21.375 9.75 44.719 18.609 69.656 26.438 28.969-45.328 67.266-83.109 111.89-109.92zm-87.891 117c41.859-62.578 102.94-108.42 173.16-127.6-32.625 31.641-59.719 83.578-77.438 147.98-33.703-5.25-65.766-12.094-95.719-20.391zm-36.562 14.109c-28.219-9.0938-54.422-19.5-78.281-31.031-67.641 56.438-108.05 127.4-111.89 203.44h143.86c1.875-62.859 18.562-121.69 46.312-172.4zm-22.312 172.4c1.9219-60.797 18.469-117.19 45.75-165.28 32.203 9.2344 66.656 16.781 102.94 22.547-10.031 43.453-15.984 91.734-16.781 142.74zm-24 24h-143.86c3.8438 76.031 44.25 147 111.89 203.48 23.859-11.578 50.062-21.984 78.281-31.078-27.75-50.719-44.438-109.55-46.312-172.4zm69.75 165.28c-27.281-48.094-43.828-104.48-45.75-165.28h131.9c0.79688 51 6.75 99.281 16.781 142.78-36.281 5.7188-70.734 13.266-102.94 22.5zm-10.875 28.312c-24.938 7.8281-48.281 16.688-69.656 26.438 1.3594 0.98438 2.7656 2.0156 4.1719 3 49.266 35.203 109.69 63 177.37 80.484-44.625-26.812-82.922-64.547-111.89-109.92zm344.72 120.52c32.906-31.922 60.188-84.516 77.953-149.72 34.078 4.875 66.562 11.438 97.031 19.406-41.953 63.984-103.78 110.86-174.98 130.31zm-147.56 0c-70.219-19.172-131.29-65.016-173.16-127.6 29.953-8.2969 62.016-15.141 95.719-20.391 17.719 64.406 44.812 116.34 77.438 147.98zm147.56-652.22c71.203 19.453 133.03 66.328 174.98 130.31-30.469 8.0156-62.953 14.531-97.031 19.406-17.766-65.203-45.047-117.8-77.953-149.72zm-55.781 468.47c39.797 0.42188 78.516 3 115.64 7.4531 9.6562-41.625 15.469-88.266 16.266-137.81h-131.9zm-24-130.36v130.36c-43.969 0.46875-86.625 3.5625-127.31 8.9531-9.8438-42.047-15.75-89.156-16.594-139.31zm0 154.36c-41.953 0.46875-82.594 3.3281-121.26 8.3438 7.2188 25.594 15.938 48.891 25.828 69.422 28.641 59.203 63.422 88.312 95.438 91.594zm133.69 6.9375c-35.203-4.125-71.906-6.5156-109.69-6.9375v166.92c28.547-8.4844 58.359-37.312 83.438-89.156 10.078-20.906 18.938-44.719 26.25-70.828zm0-346.6c-7.3125-26.109-16.172-49.922-26.25-70.828-25.078-51.844-54.891-80.672-83.438-89.156v166.92c37.781-0.42188 74.484-2.8125 109.69-6.9375zm-133.69 6.9375v-169.31c-32.016 3.2344-66.797 32.344-95.438 91.547-9.8906 20.531-18.609 43.828-25.828 69.422 38.672 5.0156 79.312 7.875 121.26 8.3438zm-127.31 15.047c40.688 5.3906 83.344 8.4844 127.31 8.9531v130.36h-143.9c0.84375-50.156 6.75-97.266 16.594-139.31zm151.31 8.9531v130.36h131.9c-0.79688-49.547-6.6094-96.188-16.266-137.81-37.125 4.4531-75.844 7.0312-115.64 7.4531z" fill-rule="evenodd"/>
</svg>
